Force Data File
version=1
nRows=68
nColumns=13
Range=1.000000e-02-10 seconds
endheader
time 	Force_r_vx 	Force_r_vy 	Force_r_vz 	Force_r_px 	Force_r_py 	Force_r_pz 	Force_l_vx 	Force_l_vy 	Force_l_vz 	Force_l_px 	Force_l_py 	Force_l_pz 		
5.010000 48.096687 224.923467 -3.377897 0.422242 0.462650 -0.097276 -1461.122654 3510.505383 -52.720714 0.263550 0.141367 -0.335446
5.020000 42.097133 220.805811 -3.326148 0.432295 0.457445 -0.097262 -1231.445324 3597.819020 -54.196399 0.253167 0.147069 -0.335372
5.030000 37.768254 218.036327 -3.281000 0.441878 0.451268 -0.097280 -995.712845 3670.098030 -55.227462 0.243263 0.153509 -0.335311
5.040000 36.344557 215.733880 -3.255172 0.450817 0.444202 -0.097282 -756.952096 3726.669260 -56.231088 0.233965 0.160634 -0.335305
5.050000 36.280017 214.270427 -3.227113 0.459345 0.436393 -0.096946 -512.112538 3768.304979 -56.754193 0.225274 0.168543 -0.335262
5.060000 35.476860 215.111037 -3.243249 0.467074 0.427828 -0.096908 -265.501780 3793.661525 -57.197392 0.217302 0.177080 -0.335184
5.070000 33.772563 216.304431 -3.250957 0.474213 0.418429 -0.096865 -11.735736 3802.939803 -57.156459 0.209883 0.186326 -0.335091
5.080000 32.848147 215.228617 -3.259660 0.480776 0.408332 -0.096856 242.232745 3795.005672 -57.475767 0.203367 0.195807 -0.335093
5.090000 30.970254 214.002124 -3.237718 0.486630 0.397735 -0.096792 498.254633 3769.919661 -57.036529 0.197677 0.205896 -0.335105
5.100000 28.477983 211.869676 -3.188511 0.491708 0.386706 -0.096752 753.149498 3727.316334 -56.093864 0.193008 0.216393 -0.335170
5.110000 26.300068 209.544179 -3.173462 0.496041 0.375182 -0.096695 1006.270210 3667.160453 -55.537658 0.189245 0.227047 -0.335152
5.120000 24.409736 206.692775 -3.128722 0.499616 0.363215 -0.096366 1258.848204 3588.245209 -54.315506 0.186375 0.238044 -0.335122
5.130000 23.530138 206.713437 -3.140216 0.502536 0.350794 -0.095983 1512.603775 3488.836171 -52.999457 0.184496 0.249420 -0.335149
5.140000 23.051803 208.971835 -3.179612 0.504434 0.338177 -0.095615 1760.776120 3370.200873 -51.279310 0.183526 0.260949 -0.335173
5.150000 23.294751 214.806202 -3.275389 0.505549 0.325375 -0.095605 2000.858206 3233.567189 -49.305800 0.183456 0.272254 -0.335227
5.160000 24.357586 222.817403 -3.408245 0.505705 0.312391 -0.096023 2236.038176 3075.493741 -47.043163 0.184174 0.283748 -0.335247
5.170000 25.607751 232.113089 -3.537258 0.504953 0.299444 -0.095694 2463.521716 2896.456388 -44.140179 0.185737 0.295391 -0.335307
5.180000 26.480795 243.554115 -3.726921 0.503359 0.286464 -0.095525 2679.925202 2697.405783 -41.276326 0.188042 0.306867 -0.335296
5.190000 27.457265 258.504230 -3.952950 0.500957 0.273593 -0.095312 2885.242631 2476.854216 -37.875127 0.190895 0.318515 -0.335187
5.200000 29.179561 274.338494 -4.189121 0.497816 0.260744 -0.095410 3075.508234 2235.973566 -34.143086 0.194705 0.329982 -0.335155
5.210000 31.382384 291.353501 -4.471834 0.493709 0.248232 -0.095480 3249.618580 1974.087555 -30.299245 0.199423 0.341613 -0.335328
5.220000 33.959214 311.367455 -4.777723 0.488762 0.236004 -0.095562 3402.019158 1697.758991 -26.050962 0.204641 0.352893 -0.335278
5.230000 36.882351 335.745273 -5.172322 0.483008 0.224067 -0.095770 3533.003861 1405.104090 -21.646325 0.210593 0.364041 -0.335199
5.240000 40.882644 363.468694 -5.606725 0.476440 0.212679 -0.095825 3639.666409 1099.840870 -16.965713 0.217317 0.375060 -0.335206
5.250000 44.245839 394.543839 -6.084375 0.469127 0.201482 -0.095788 3720.583472 782.543120 -12.067824 0.224625 0.385782 -0.335093
5.260000 49.427039 428.640184 -6.638387 0.461069 0.191076 -0.095868 3774.026604 460.677768 -7.134556 0.232633 0.396254 -0.335006
5.270000 59.226421 462.375961 -7.170963 0.452335 0.181337 -0.095781 3799.349104 139.452666 -2.162764 0.241265 0.405979 -0.334929
5.280000 69.054599 491.965748 -7.619842 0.442996 0.172265 -0.095727 3797.468810 -179.916418 2.786647 0.250361 0.415272 -0.334842
5.290000 80.308333 515.918368 -8.005789 0.433074 0.163905 -0.095679 3769.322381 -495.280542 7.685540 0.260116 0.423908 -0.334817
5.300000 93.113120 530.210651 -8.235142 0.422726 0.156244 -0.095611 3715.894812 -802.408207 12.462868 0.270348 0.431889 -0.334773
5.310000 104.340506 536.318602 -8.299659 0.411927 0.149579 -0.095465 3640.243939 -1095.377158 16.951224 0.280791 0.439049 -0.334916
5.320000 113.918985 532.351594 -8.222462 0.400646 0.143782 -0.095348 3542.079494 -1379.900578 21.313320 0.291777 0.445612 -0.334938
5.330000 119.765717 519.735693 -8.029146 0.389240 0.138886 -0.095230 3424.941289 -1648.794156 25.471424 0.303116 0.451305 -0.335062
5.340000 122.649196 499.387120 -7.733148 0.377459 0.134895 -0.094997 3291.170823 -1901.960715 29.452389 0.314508 0.456058 -0.335133
5.350000 124.988222 472.831859 -7.312949 0.365671 0.131919 -0.094881 3143.852520 -2136.743122 33.047464 0.325865 0.460059 -0.335047
5.360000 122.287764 444.505410 -6.833763 0.353853 0.129731 -0.094780 2983.044078 -2356.233280 36.224393 0.337492 0.463230 -0.335198
5.370000 118.989360 414.290198 -6.367317 0.341984 0.128594 -0.094747 2808.678064 -2562.145396 39.378175 0.349370 0.465581 -0.335582
5.380000 111.958578 383.089488 -5.877630 0.330303 0.128362 -0.094880 2626.440473 -2748.833966 42.174555 0.361066 0.466886 -0.335544
5.390000 104.937717 353.830480 -5.408353 0.318500 0.128903 -0.094783 2435.676114 -2919.347215 44.622670 0.372369 0.467143 -0.335585
5.400000 98.765454 325.433662 -4.984280 0.306756 0.130611 -0.094689 2233.725929 -3076.542957 47.119746 0.383693 0.466500 -0.335652
5.410000 91.675679 297.303758 -4.537153 0.295171 0.133200 -0.094587 2024.403036 -3218.026944 49.110312 0.394763 0.464894 -0.335683
5.420000 84.447809 270.363268 -4.122752 0.283901 0.136431 -0.094513 1808.659396 -3343.931920 50.991401 0.405571 0.462324 -0.335675
5.430000 78.829088 245.519496 -3.756535 0.272834 0.140818 -0.094437 1583.680276 -3456.145261 52.880237 0.416239 0.458985 -0.335542
5.440000 72.104174 222.987708 -3.413225 0.262253 0.146078 -0.094408 1353.615460 -3552.601057 54.378903 0.426409 0.454522 -0.335477
5.450000 65.305369 200.159478 -3.055614 0.252092 0.152090 -0.094389 1118.413490 -3633.599490 55.470161 0.436116 0.449199 -0.335440
5.460000 55.864916 178.295659 -2.718863 0.242498 0.158959 -0.094368 876.863176 -3699.579940 56.415571 0.445365 0.442816 -0.335520
5.470000 47.087283 157.551273 -2.404165 0.233539 0.166549 -0.094389 630.712050 -3749.398805 57.214217 0.454045 0.435607 -0.335519
5.480000 39.022478 138.826187 -2.105979 0.225185 0.174874 -0.094361 380.413151 -3783.058258 57.388615 0.462084 0.427629 -0.335642
5.490000 30.316241 123.427423 -1.875357 0.217595 0.183765 -0.094354 126.995481 -3800.101010 57.738753 0.469421 0.418832 -0.335759
5.500000 22.800909 111.936884 -1.707489 0.210766 0.193145 -0.094259 -128.319882 -3800.116455 57.967104 0.476040 0.409358 -0.335882
5.510000 17.512960 103.051383 -1.566940 0.204636 0.203038 -0.094225 -384.048310 -3782.931370 57.521060 0.481652 0.399322 -0.335739
5.520000 12.578631 94.349825 -1.432877 0.199394 0.213474 -0.094259 -647.415059 -3746.841617 56.902734 0.487089 0.388490 -0.335870
5.530000 6.594239 86.312830 -1.310465 0.194955 0.224316 -0.094155 -910.493813 -3691.623042 56.048945 0.491602 0.377178 -0.336259
5.540000 0.800230 79.704702 -1.205594 0.191418 0.235403 -0.094075 -1170.373628 -3617.788595 54.721772 0.495206 0.365547 -0.336194
5.550000 -5.110880 74.049587 -1.119146 0.188717 0.246637 -0.094086 -1426.942928 -3524.411883 53.266086 0.497903 0.353566 -0.335528
5.560000 -10.414702 69.625756 -1.046835 0.186906 0.258162 -0.094118 -1679.809220 -3411.152673 51.287248 0.499905 0.341444 -0.335360
5.570000 -15.108221 66.667200 -1.005285 0.185979 0.269935 -0.094176 -1934.376322 -3273.644933 49.363791 0.501006 0.328555 -0.335612
5.580000 -18.240833 65.722794 -0.989793 0.185861 0.281703 -0.094148 -2177.450945 -3117.446022 46.949095 0.501378 0.315867 -0.335691
5.590000 -21.886449 65.478376 -0.981708 0.186654 0.293509 -0.094120 -2413.448405 -2938.842306 44.061662 0.500840 0.302928 -0.335903
5.600000 -25.669494 65.508788 -0.981029 0.188253 0.305375 -0.094219 -2638.055523 -2738.793864 41.014912 0.499317 0.290079 -0.335983
5.610000 -28.389895 66.870064 -1.002097 0.190706 0.317115 -0.094147 -2850.238974 -2517.106824 37.720699 0.497043 0.277119 -0.336031
5.620000 -28.421420 69.006693 -1.032510 0.193865 0.328804 -0.094279 -3047.033667 -2274.725259 34.035506 0.493858 0.264266 -0.336115
5.630000 -25.911747 71.725818 -1.071494 0.197943 0.340318 -0.094272 -3224.739500 -2014.556291 30.094951 0.489815 0.251715 -0.336105
5.640000 -22.964776 74.445405 -1.111603 0.202798 0.351732 -0.094384 -3382.902945 -1736.071142 25.922637 0.485001 0.239361 -0.336118
5.650000 -21.317993 77.676276 -1.156065 0.208386 0.362933 -0.094461 -3518.632402 -1441.505430 21.454101 0.479328 0.227262 -0.336138
5.660000 -19.130758 81.756312 -1.215014 0.214771 0.373740 -0.094613 -3628.657152 -1136.715144 16.893183 0.473003 0.215593 -0.336245
5.670000 -18.486927 86.858865 -1.292318 0.221828 0.384527 -0.094692 -3713.536510 -819.555810 12.193651 0.465839 0.204370 -0.336093
5.680000 -18.773074 92.732927 -1.376052 0.229619 0.394794 -0.094835 -3770.353440 -497.636238 7.384363 0.458057 0.193602 -0.335965
